<svg width="39.937500" height="39.937500" viewBox="0 0 39.9375 39.9375" fill="none" xmlns="http://www.w3.org/2000/svg" xmlns:xlink="http://www.w3.org/1999/xlink">
	<desc>
			Created with Pixso.
	</desc>
	<defs>
		<linearGradient x1="19.968750" y1="-4.031250" x2="19.968750" y2="43.968750" id="paint_linear_18384_58_0" gradientUnits="userSpaceOnUse">
			<stop stop-color="#BC9CFF"/>
			<stop offset="1.000000" stop-color="#8BA4F9"/>
		</linearGradient>
	</defs>
	<path d="M12.6 1.35Q8.89 2.82 5.81 5.9Q2.94 8.77 1.48 12.24Q0 15.79 0 19.96Q0 24.03 1.4 27.52Q2.86 31.12 5.81 34.12Q8.81 37.07 12.41 38.52Q15.9 39.93 19.96 39.93Q24.14 39.93 27.69 38.44Q31.16 36.99 34.03 34.12Q37.1 31.04 38.58 27.33Q39.93 23.91 39.93 19.96Q39.93 15.9 38.5 12.43Q37.02 8.85 34.03 5.9Q31.08 2.9 27.5 1.43Q24.03 0 19.96 0Q16.01 0 12.6 1.35ZM14.25 34.98Q11.18 33.82 8.62 31.31Q6.11 28.75 4.95 25.68Q3.93 23.01 3.93 19.96Q3.93 16.8 5.02 14.06Q6.2 11.14 8.62 8.71Q11.25 6.08 14.43 4.9Q17.02 3.93 19.96 3.93Q23.03 3.93 25.68 4.97Q28.71 6.16 31.21 8.71Q33.76 11.21 34.95 14.25Q36 16.9 36 19.96Q36 22.91 35.03 25.5Q33.85 28.67 31.21 31.31Q28.79 33.73 25.86 34.9Q23.13 36 19.96 36Q16.91 36 14.25 34.98ZM14.13 17.75Q14.6 17.54 15 17.15Q15.6 16.55 15.81 15.83Q15.93 15.43 15.93 15Q15.93 14.45 15.74 13.98Q15.51 13.4 15 12.93Q14.53 12.42 13.95 12.18Q13.48 12 12.93 12Q12.5 12 12.1 12.12Q11.38 12.33 10.78 12.93Q10.38 13.32 10.18 13.8Q9.93 14.34 9.93 15Q9.93 15.52 10.09 16Q10.3 16.62 10.78 17.15Q11.31 17.63 11.93 17.84Q12.4 18 12.93 18Q13.59 18 14.13 17.75ZM28.19 17.75Q28.67 17.54 29.06 17.15Q29.66 16.55 29.88 15.83Q30 15.43 30 15Q30 14.45 29.81 13.98Q29.57 13.4 29.06 12.93Q28.59 12.42 28.01 12.18Q27.54 12 27 12Q26.56 12 26.16 12.12Q25.44 12.33 24.84 12.93Q24.45 13.32 24.24 13.8Q24 14.34 24 15Q24 15.52 24.15 16Q24.36 16.62 24.84 17.15Q25.37 17.63 25.99 17.84Q26.47 18 27 18Q27.65 18 28.19 17.75ZM24.08 30.17Q25.17 29.74 26.15 29.06Q27.83 27.88 28.94 26.31Q29.69 25.25 30.18 24L9.75 24Q10.32 25.45 11.22 26.65Q12.24 28.01 13.68 29.06Q14.87 29.85 16.18 30.31Q17.96 30.93 19.96 30.93Q22.18 30.93 24.08 30.17Z" fill="url(#paint_linear_18384_58_0)" fill-opacity="1.000000" fill-rule="evenodd"/>
</svg>
