<svg width="32.062500" height="42.656250" viewBox="0 0 32.0625 42.6562" fill="none" xmlns="http://www.w3.org/2000/svg" xmlns:xlink="http://www.w3.org/1999/xlink">
	<desc>
			Created with Pixso.
	</desc>
	<defs>
		<linearGradient x1="16.031250" y1="-1.312500" x2="16.031250" y2="46.687500" id="paint_linear_18384_65_0" gradientUnits="userSpaceOnUse">
			<stop stop-color="#BC9CFF"/>
			<stop offset="1.000000" stop-color="#8BA4F9"/>
		</linearGradient>
	</defs>
	<path d="M23.65 4.5Q21.56 2.06 19.03 0L19.4 1.5Q19.78 2.9 20.15 5.34Q20.53 7.78 20.53 9.65Q20.53 11.77 19.65 13.44Q19.22 14.27 18.56 15Q17.83 15.8 16.93 16.29Q15.52 17.06 13.68 17.06Q11.95 17.06 10.55 16.39Q9.44 15.85 8.53 14.9Q7.63 13.96 7.12 12.85Q6.46 11.4 6.46 9.65L6.46 8.9Q3.34 12.62 1.72 16.91Q0 21.48 0 26.71Q0 29.88 1.09 32.61Q2.26 35.54 4.68 37.96Q6.99 40.27 9.78 41.45Q12.65 42.65 16.03 42.65Q19.4 42.65 22.27 41.45Q25.06 40.27 27.37 37.96Q29.79 35.54 30.97 32.61Q32.06 29.88 32.06 26.71Q32.06 22.43 31 18.42Q30.12 15.06 28.5 11.9Q26.49 7.84 23.65 4.5ZM19.7 35.74Q17.8 36.65 15.46 36.65Q13.86 36.65 12.55 36.03Q11.64 35.6 10.87 34.87Q9.9 33.9 9.43 32.73Q9 31.64 9 30.37Q9 28.34 9.93 26.94Q11.29 24.9 14.62 24.18Q21 22.87 23.9 19.03Q24.36 20.62 24.63 22.25Q25.03 24.64 25.03 27.09Q25.03 29.2 24.26 30.97Q23.56 32.59 22.21 33.93Q21.07 35.07 19.7 35.74Z" fill="url(#paint_linear_18384_65_0)" fill-opacity="1.000000" fill-rule="evenodd"/>
</svg>
