<svg width="21.000000" height="21.000000" viewBox="0 0 21 21" fill="none" xmlns="http://www.w3.org/2000/svg" xmlns:xlink="http://www.w3.org/1999/xlink">
	<desc>
			Created with Pixso.
	</desc>
	<defs>
		<linearGradient x1="10.500000" y1="-1.500000" x2="10.500000" y2="22.500000" id="paint_linear_18374_600_0" gradientUnits="userSpaceOnUse">
			<stop stop-color="#BC9CFF"/>
			<stop offset="1.000000" stop-color="#8BA4F9"/>
		</linearGradient>
	</defs>
	<path id="" d="M19.89 2.56Q20.29 3.12 20.53 3.79Q20.85 4.78 20.95 6.14Q21 7.45 21 10.5Q21 13.54 20.9 14.9Q20.85 16.21 20.53 17.2Q20.34 17.72 20.06 18.18Q19.71 18.76 19.21 19.26Q18.98 19.49 18.72 19.7Q18.05 20.22 17.2 20.53Q16.21 20.85 14.85 20.9Q13.54 21 10.5 21Q7.45 21 6.09 20.9Q4.78 20.85 3.79 20.48Q3.19 20.29 2.66 19.97Q2.16 19.67 1.73 19.26Q1.38 18.9 1.11 18.48Q0.71 17.89 0.46 17.2Q0.14 16.21 0.04 14.9Q0 13.54 0 10.5Q0 7.45 0.04 6.14Q0.14 4.78 0.46 3.79Q0.77 2.94 1.29 2.27Q1.5 2.01 1.73 1.78Q2.23 1.28 2.81 0.93Q3.27 0.65 3.79 0.46Q4.78 0.14 6.09 0.09Q7.45 0 10.5 0Q13.54 0 14.85 0.09Q16.21 0.14 17.2 0.46Q17.87 0.7 18.43 1.1Q18.85 1.39 19.21 1.78Q19.6 2.14 19.89 2.56ZM18.04 17.75Q18.45 17.29 18.7 16.68Q18.98 15.89 19.07 14.15Q19.12 13.12 19.12 11.25L19.12 9.75Q19.12 7.82 19.07 6.84Q18.98 5.06 18.7 4.31Q18.42 3.58 17.91 3.08Q17.41 2.57 16.68 2.29Q15.93 2.01 14.15 1.92Q13.12 1.87 11.25 1.87L9.75 1.87Q7.87 1.87 6.84 1.92Q5.1 2.01 4.31 2.29Q3.58 2.57 3.08 3.08Q2.57 3.58 2.29 4.31Q2.01 5.06 1.92 6.84Q1.87 7.87 1.87 9.75L1.87 11.25Q1.87 13.12 1.92 14.15Q2.01 15.89 2.29 16.68Q2.64 17.51 3.24 18.04Q3.7 18.45 4.31 18.7Q5.1 18.98 6.84 19.07Q7.87 19.12 9.75 19.12L11.25 19.12Q13.17 19.12 14.15 19.07Q15.93 18.98 16.68 18.7Q17.51 18.35 18.04 17.75ZM17.28 5.3Q17.36 5.1 17.39 4.87Q17.39 4.64 17.31 4.43Q17.22 4.18 17.01 3.98Q16.81 3.77 16.56 3.68Q16.35 3.6 16.12 3.6Q15.89 3.6 15.68 3.68Q15.43 3.77 15.23 3.98Q15.02 4.18 14.93 4.43Q14.85 4.64 14.85 4.87Q14.85 5.1 14.93 5.31Q15.02 5.56 15.23 5.76Q15.43 5.97 15.68 6.06Q15.89 6.14 16.12 6.14Q16.4 6.14 16.63 6.02Q16.82 5.93 16.96 5.76Q17.17 5.55 17.28 5.3ZM9.21 5.26Q9.83 5.1 10.5 5.1Q11.3 5.1 12.03 5.33Q12.62 5.52 13.17 5.85Q13.8 6.21 14.29 6.7Q14.78 7.19 15.14 7.82Q15.47 8.37 15.66 8.96Q15.89 9.69 15.89 10.5Q15.89 11.16 15.73 11.78Q15.54 12.53 15.14 13.21Q14.91 13.61 14.61 13.96Q14.02 14.68 13.17 15.18Q12.7 15.45 12.21 15.62Q11.4 15.89 10.5 15.89Q9.75 15.89 9.05 15.7Q8.39 15.52 7.78 15.18Q7.17 14.81 6.67 14.32Q6.18 13.82 5.81 13.21Q5.47 12.6 5.29 11.94Q5.1 11.24 5.1 10.5Q5.1 9.59 5.37 8.78Q5.54 8.29 5.81 7.82Q6.31 6.97 7.03 6.38Q7.38 6.08 7.78 5.85Q8.46 5.45 9.21 5.26ZM9.16 13.76Q9.78 14.01 10.5 14.01Q11.21 14.01 11.83 13.76Q12.46 13.5 12.98 12.98Q13.5 12.46 13.76 11.83Q14.01 11.21 14.01 10.5Q14.01 9.78 13.76 9.16Q13.5 8.53 12.98 8.01Q12.46 7.49 11.83 7.23Q11.21 6.98 10.5 6.98Q9.78 6.98 9.16 7.23Q8.53 7.49 8.01 8.01Q7.49 8.53 7.23 9.16Q6.98 9.78 6.98 10.5Q6.98 11.21 7.23 11.83Q7.49 12.46 8.01 12.98Q8.53 13.5 9.16 13.76Z" fill="url(#paint_linear_18374_600_0)" fill-opacity="1.000000" fill-rule="evenodd"/>
</svg>
