<svg width="8.320312" height="7.636719" viewBox="0 0 8.32031 7.63672" fill="none" xmlns="http://www.w3.org/2000/svg" xmlns:xlink="http://www.w3.org/1999/xlink">
	<desc>
			Created with Pixso.
	</desc>
	<defs>
		<linearGradient x1="4.160184" y1="-6.250000" x2="4.160184" y2="13.750000" id="paint_linear_18384_118_0" gradientUnits="userSpaceOnUse">
			<stop stop-color="#BC9CFF"/>
			<stop offset="1.000000" stop-color="#8BA4F9"/>
		</linearGradient>
	</defs>
	<path id="favorite" d="M3.55 7.08L4.16 7.63L4.76 7.1Q6.11 5.89 6.69 5.29C7.1 4.88 7.47 4.41 7.81 3.86Q8.32 3.04 8.32 2.28C8.32 1.64 8.09 1.1 7.65 0.66Q7.39 0.39 7.06 0.22Q6.6 0 6.03 0Q5.49 0 5.04 0.2Q4.54 0.42 4.16 0.87Q3.77 0.42 3.27 0.2Q2.82 0 2.28 0Q1.73 4.76e-7 1.27 0.21Q0.93 0.37 0.64 0.66C0.21 1.1 2.76e-5 1.64 2.76e-5 2.28Q2.76e-5 2.41 0.01 2.55Q0.05 2.98 0.21 3.39C0.35 3.75 0.61 4.14 0.99 4.58Q1.58 5.25 2.05 5.7C2.36 6 2.86 6.46 3.55 7.08Z" fill="url(#paint_linear_18384_118_0)" fill-opacity="1.000000" fill-rule="evenodd"/>
</svg>
