<svg width="8.320312" height="7.636719" viewBox="0 0 8.32031 7.63672" fill="none" xmlns="http://www.w3.org/2000/svg" xmlns:xlink="http://www.w3.org/1999/xlink">
	<desc>
			Created with Pixso.
	</desc>
	<defs/>
	<path id="favorite_border" d="M7.06 0.22Q6.6 0 6.03 0Q5.49 0 5.04 0.2Q4.54 0.42 4.16 0.87Q3.77 0.42 3.27 0.2Q2.82 0 2.28 0Q1.73 4.76e-7 1.27 0.21Q0.93 0.37 0.64 0.66C0.21 1.1 0 1.64 0 2.28Q-4.77e-7 3.04 0.5 3.86C0.84 4.41 1.21 4.88 1.6 5.29C2 5.69 2.65 6.3 3.55 7.1L4.16 7.63L4.76 7.08C5.45 6.46 5.95 6 6.26 5.7C6.58 5.4 6.92 5.03 7.3 4.58C7.69 4.14 7.96 3.75 8.1 3.39C8.24 3.03 8.32 2.66 8.32 2.28C8.32 1.64 8.09 1.1 7.65 0.66Q7.39 0.39 7.06 0.22ZM5.58 5.21C5.28 5.5 4.82 5.92 4.19 6.48L4.16 6.52L4.12 6.48C3.49 5.92 3.03 5.5 2.73 5.21C2.43 4.92 2.1 4.58 1.75 4.19Q1.23 3.61 1.01 3.16C0.88 2.86 0.82 2.57 0.82 2.28Q0.82 1.89 0.98 1.58Q1.07 1.4 1.23 1.25C1.51 0.97 1.86 0.83 2.28 0.83C2.61 0.83 2.91 0.93 3.18 1.11Q3.5 1.31 3.67 1.61Q3.73 1.71 3.76 1.81L4.55 1.81C4.65 1.52 4.84 1.29 5.11 1.11C5.4 0.93 5.7 0.83 6.03 0.83Q6.42 0.83 6.73 1Q6.91 1.09 7.07 1.25C7.35 1.52 7.5 1.86 7.5 2.28Q7.5 2.71 7.28 3.16C7.15 3.46 6.91 3.8 6.56 4.19C6.21 4.58 5.88 4.92 5.58 5.21Z" fill="#1F2041" fill-opacity="0.250000" fill-rule="evenodd"/>
</svg>
