<svg width="24.000000" height="19.500000" viewBox="0 0 24 19.5" fill="none" xmlns="http://www.w3.org/2000/svg" xmlns:xlink="http://www.w3.org/1999/xlink">
	<desc>
			Created with Pixso.
	</desc>
	<defs>
		<linearGradient x1="12.000000" y1="-2.250000" x2="12.000000" y2="21.750000" id="paint_linear_18374_598_0" gradientUnits="userSpaceOnUse">
			<stop stop-color="#BC9CFF"/>
			<stop offset="1.000000" stop-color="#8BA4F9"/>
		</linearGradient>
	</defs>
	<path id="" d="M21.56 5.48Q21.56 5.06 21.51 4.87Q22.16 4.39 22.72 3.83Q23.42 3.13 24 2.29Q22.59 2.9 21.18 3.09Q22.07 2.54 22.64 1.76Q23.09 1.14 23.34 0.37Q22.91 0.62 22.46 0.82Q21.39 1.31 20.2 1.54Q20.03 1.37 19.84 1.21Q19.26 0.74 18.56 0.42Q18.51 0.4 18.47 0.37Q17.61 0 16.59 0Q15.9 0 15.25 0.18Q14.68 0.34 14.15 0.65Q13.71 0.91 13.35 1.24Q12.77 1.76 12.37 2.48Q12.06 3.01 11.9 3.58Q11.71 4.22 11.71 4.92Q11.71 5.48 11.81 6.04Q10.28 5.97 8.83 5.58Q7.44 5.21 6.14 4.54Q4.72 3.81 3.53 2.8Q2.52 1.94 1.68 0.89Q1.23 1.64 1.07 2.45Q0.98 2.9 0.98 3.37Q0.98 4.11 1.19 4.78Q1.34 5.27 1.59 5.71Q1.97 6.39 2.5 6.91Q2.81 7.23 3.18 7.5Q2.7 7.48 2.24 7.36Q1.59 7.2 0.98 6.84L0.98 6.93Q0.98 7.73 1.22 8.46Q1.5 9.3 2.1 10.03Q2.72 10.77 3.51 11.22Q4.16 11.59 4.92 11.76Q4.26 11.9 3.6 11.9Q3.18 11.9 2.71 11.85Q2.91 12.47 3.24 13Q3.7 13.72 4.4 14.29Q4.9 14.66 5.46 14.89Q6.32 15.23 7.31 15.23Q5.91 16.31 4.33 16.84Q2.83 17.34 1.17 17.34Q0.51 17.34 0 17.29Q1.56 18.3 3.27 18.85Q5.3 19.5 7.54 19.5Q10.69 19.5 13.31 18.32Q14.28 17.89 15.18 17.29Q16.39 16.51 17.39 15.52Q18.9 14 19.92 12Q21.09 9.76 21.42 7.4Q21.56 6.45 21.56 5.48Z" fill="url(#paint_linear_18374_598_0)" fill-opacity="1.000000" fill-rule="evenodd"/>
</svg>
