<svg width="105.690155" height="40.000000" viewBox="0 0 105.69 40" fill="none" xmlns="http://www.w3.org/2000/svg" xmlns:xlink="http://www.w3.org/1999/xlink">
	<desc>
			Created with Pixso.
	</desc>
	<defs>
		<linearGradient x1="15.293974" y1="15.294189" x2="15.293974" y2="27.058895" id="paint_linear_18370_64_0" gradientUnits="userSpaceOnUse">
			<stop stop-color="#BC9CFF"/>
			<stop offset="1.000000" stop-color="#8BA4F9"/>
		</linearGradient>
		<linearGradient x1="26.029345" y1="15.294189" x2="26.029345" y2="21.205954" id="paint_linear_18370_65_0" gradientUnits="userSpaceOnUse">
			<stop stop-color="#6FCF97"/>
			<stop offset="1.000000" stop-color="#66D2EA"/>
		</linearGradient>
		<linearGradient x1="20.000000" y1="0.000000" x2="20.000000" y2="40.000000" id="paint_linear_18370_66_0" gradientUnits="userSpaceOnUse">
			<stop stop-color="#BC9CFF"/>
			<stop offset="1.000000" stop-color="#8BA4F9"/>
		</linearGradient>
	</defs>
	<path id="TOXIN" d="M91.73 26.26C91.51 26.26 91.32 26.19 91.17 26.03C91.02 25.88 90.94 25.7 90.94 25.47L90.94 14.1C90.94 13.89 91.02 13.71 91.17 13.56C91.32 13.4 91.51 13.33 91.73 13.33C91.94 13.33 92.12 13.4 92.27 13.56C92.42 13.71 92.5 13.89 92.5 14.1L92.5 25.47C92.5 25.7 92.42 25.88 92.27 26.03C92.12 26.19 91.94 26.26 91.73 26.26ZM62.33 13.36C62.55 13.36 62.73 13.44 62.87 13.59Q62.96 13.67 63.02 13.77Q63.1 13.93 63.1 14.13Q63.1 14.28 63.05 14.41L63.05 14.41L63.05 14.41Q62.99 14.55 62.87 14.68C62.73 14.83 62.55 14.9 62.33 14.9L58.57 14.9L58.57 25.4Q58.57 25.59 58.5 25.74L58.5 25.74Q58.44 25.86 58.34 25.96C58.2 26.1 58.02 26.17 57.8 26.17Q57.63 26.17 57.49 26.11L57.49 26.11Q57.36 26.06 57.26 25.96Q57.15 25.86 57.1 25.74L57.1 25.74Q57.03 25.59 57.03 25.4L57.03 14.9L53.27 14.9Q53.12 14.9 52.99 14.85Q52.84 14.8 52.72 14.68Q52.6 14.55 52.54 14.41L52.54 14.41Q52.5 14.28 52.5 14.13Q52.5 13.93 52.58 13.77L52.58 13.77Q52.63 13.67 52.72 13.59Q52.84 13.47 52.99 13.41L52.99 13.41Q53.12 13.36 53.27 13.36L62.33 13.36ZM68.9 13.36Q69.89 13.36 70.79 13.64Q71.1 13.74 71.41 13.87Q72.36 14.28 73.11 14.92L73.11 14.92L73.12 14.92Q73.3 15.08 73.47 15.25C74.07 15.84 74.53 16.53 74.87 17.32Q75 17.62 75.1 17.93L75.1 17.93Q75.38 18.83 75.38 19.82Q75.38 21 74.99 22.05L74.99 22.05L74.99 22.05Q74.87 22.38 74.71 22.69Q74.32 23.47 73.76 24.1Q73.37 24.53 72.91 24.9L72.88 24.93C72.32 25.35 71.7 25.68 71.04 25.93Q70.04 26.28 68.9 26.28Q67.92 26.28 67.02 26L67.02 26L67.02 26Q66.7 25.9 66.4 25.77Q65.62 25.43 64.97 24.93Q64.63 24.68 64.34 24.39Q64.1 24.15 63.88 23.89L63.88 23.89L63.88 23.89Q63.32 23.19 62.95 22.34Q62.86 22.13 62.79 21.91L62.79 21.91L62.78 21.91Q62.45 20.92 62.45 19.82Q62.45 18.61 62.85 17.55L62.85 17.55Q62.94 17.33 63.04 17.11Q63.41 16.33 63.95 15.69Q64.28 15.29 64.67 14.96L64.74 14.89C64.75 14.89 64.77 14.87 64.79 14.85Q65.05 14.64 65.33 14.45Q65.95 14.03 66.68 13.77Q66.88 13.69 67.08 13.63Q67.95 13.36 68.9 13.36ZM104.34 25.93C104.48 26.13 104.68 26.23 104.93 26.23C104.98 26.23 105.06 26.21 105.18 26.19C105.33 26.13 105.45 26.04 105.55 25.91C105.64 25.78 105.69 25.64 105.69 25.47L105.69 14.12C105.69 13.92 105.61 13.74 105.46 13.59C105.32 13.44 105.14 13.36 104.93 13.36C104.72 13.36 104.54 13.44 104.39 13.59C104.25 13.74 104.18 13.92 104.18 14.12L104.18 23.27L96.9 13.66C96.8 13.53 96.67 13.45 96.52 13.4C96.36 13.35 96.21 13.36 96.06 13.42C95.9 13.46 95.77 13.55 95.68 13.68C95.58 13.81 95.54 13.95 95.54 14.12L95.54 25.47C95.54 25.68 95.61 25.86 95.76 26.02C95.91 26.16 96.09 26.23 96.29 26.23C96.5 26.23 96.67 26.16 96.81 26.02C96.96 25.86 97.04 25.68 97.04 25.47L97.04 16.34L104.34 25.93ZM81.35 19.83L77.25 14.57C77.13 14.41 77.07 14.23 77.1 14.03C77.12 13.82 77.21 13.65 77.38 13.52C77.54 13.39 77.72 13.35 77.92 13.38C78.13 13.4 78.3 13.5 78.43 13.66L82.35 18.67L86.18 13.75C86.31 13.59 86.47 13.49 86.67 13.47C86.88 13.45 87.07 13.5 87.23 13.63Q87.34 13.72 87.41 13.83Q87.49 13.97 87.51 14.13C87.53 14.33 87.48 14.51 87.35 14.68L83.34 19.83L87.04 24.56C87.09 24.65 87.15 24.7 87.19 24.72L87.3 24.77Q87.47 24.77 87.6 24.84Q87.71 24.89 87.79 24.98C87.93 25.11 88 25.28 88.02 25.47C88.04 25.68 87.98 25.86 87.84 26.02C87.7 26.17 87.53 26.25 87.32 26.26L87.26 26.26C87.22 26.26 87.14 26.26 87.04 26.24C86.94 26.23 86.83 26.2 86.7 26.16C86.58 26.1 86.44 26.02 86.28 25.93C86.14 25.82 86 25.68 85.86 25.51L82.35 20.98L78.51 25.91C78.39 26.07 78.22 26.17 78.01 26.19C77.81 26.21 77.63 26.16 77.46 26.03C77.3 25.91 77.21 25.74 77.18 25.54C77.16 25.33 77.21 25.15 77.34 24.98L81.35 19.83ZM72.53 23.15C72.93 22.7 73.25 22.2 73.47 21.64Q73.56 21.43 73.62 21.22L73.62 21.22L73.62 21.22Q73.82 20.55 73.82 19.82C73.82 19.14 73.69 18.51 73.44 17.91C73.18 17.32 72.82 16.8 72.37 16.36C71.92 15.9 71.41 15.55 70.81 15.29C70.22 15.03 69.58 14.9 68.9 14.9Q68.26 14.9 67.66 15.07L67.66 15.07Q67.6 15.08 67.56 15.1Q67.11 15.21 66.72 15.41L66.72 15.41L66.72 15.41L66.72 15.41Q66.53 15.51 66.35 15.62L72.53 23.15ZM68.9 24.74C69.35 24.74 69.77 24.69 70.16 24.58C70.57 24.46 70.96 24.31 71.32 24.11L65.18 16.64Q65.03 16.81 64.9 16.99L64.9 16.99L64.9 16.99Q64.53 17.5 64.3 18.11Q64.26 18.21 64.22 18.32Q63.99 19.03 63.99 19.82Q63.99 20.59 64.21 21.3L64.21 21.3L64.21 21.3Q64.28 21.52 64.37 21.73Q64.62 22.31 64.99 22.8L64.99 22.8Q65.19 23.06 65.42 23.3C65.88 23.75 66.4 24.1 67 24.35C67.59 24.61 68.23 24.74 68.9 24.74Z" fill="#1F2041" fill-opacity="1.000000" fill-rule="evenodd"/>
	<path id="Vector" d="M19.99 27.05C19.35 27.05 18.82 26.52 18.82 25.88C18.82 21.35 15.11 17.64 10.58 17.64C9.94 17.64 9.41 17.11 9.41 16.47C9.41 15.82 9.94 15.29 10.58 15.29C16.44 15.29 21.17 20.02 21.17 25.88C21.17 26.52 20.64 27.05 19.99 27.05Z" fill="url(#paint_linear_18370_64_0)" fill-opacity="1.000000" fill-rule="nonzero"/>
	<path id="Vector" d="M30.58 16.47C30.58 17.11 30.05 17.64 29.41 17.64C26.61 17.64 24.11 19.05 22.64 21.2C22.32 20.38 21.94 19.61 21.47 18.91C23.41 16.67 26.26 15.29 29.41 15.29C30.05 15.29 30.58 15.82 30.58 16.47Z" fill="url(#paint_linear_18370_65_0)" fill-opacity="1.000000" fill-rule="nonzero"/>
	<path id="Vector" d="M20 40C8.97 40 0 31.02 0 20C0 8.97 8.97 0 20 0C31.02 0 40 8.97 40 20C40 31.02 31.02 40 20 40ZM20 2.35C10.26 2.35 2.35 10.26 2.35 20C2.35 29.73 10.26 37.64 20 37.64C29.73 37.64 37.64 29.73 37.64 20C37.64 10.26 29.73 2.35 20 2.35Z" fill="url(#paint_linear_18370_66_0)" fill-opacity="1.000000" fill-rule="nonzero"/>
</svg>
