<svg width="21.000000" height="21.000000" viewBox="0 0 21 21" fill="none" xmlns="http://www.w3.org/2000/svg" xmlns:xlink="http://www.w3.org/1999/xlink">
	<desc>
			Created with Pixso.
	</desc>
	<defs>
		<linearGradient x1="10.500000" y1="-1.500000" x2="10.500000" y2="22.500000" id="paint_linear_18374_599_0" gradientUnits="userSpaceOnUse">
			<stop stop-color="#BC9CFF"/>
			<stop offset="1.000000" stop-color="#8BA4F9"/>
		</linearGradient>
	</defs>
	<path id="" d="M21 18.75L21 2.25Q21 1.76 20.82 1.35Q20.66 0.97 20.34 0.65Q20.02 0.33 19.64 0.17Q19.23 0 18.75 0L2.25 0Q1.76 0 1.35 0.17Q0.97 0.33 0.65 0.65Q0.33 0.97 0.17 1.35Q0 1.76 0 2.25L0 18.75Q0 19.23 0.17 19.64Q0.33 20.02 0.65 20.34Q0.97 20.66 1.35 20.82Q1.76 21 2.25 21L11.48 21L11.48 12.7L8.62 12.7L8.62 9.51L11.48 9.51L11.48 7.17Q11.48 5.4 12.35 4.35Q12.45 4.23 12.56 4.12Q12.82 3.86 13.12 3.66Q14.12 3 15.56 3Q17.01 3 18 3.14L18 5.95L16.31 5.95Q15.42 5.95 15.04 6.37Q14.76 6.75 14.76 7.5L14.76 9.51L18 9.51L17.57 12.7L14.76 12.7L14.76 21L18.75 21Q19.23 21 19.64 20.82Q20.02 20.66 20.34 20.34Q20.66 20.02 20.82 19.64Q21 19.23 21 18.75Z" fill="url(#paint_linear_18374_599_0)" fill-opacity="1.000000" fill-rule="evenodd"/>
</svg>
